<svg xmlns="http://www.w3.org/2000/svg" viewBox="0 0 800 700">
  <!-- Background -->
  <rect width="800" height="700" fill="#f5f7fa" />
  
  <!-- Header -->
  <rect y="0" width="800" height="70" fill="#ffffff" stroke="#e0e0e0" stroke-width="1" />
  <rect x="20" y="20" width="180" height="30" fill="#0055a4" rx="3" ry="3" />
  <text x="210" y="40" font-family="Arial" font-size="14" fill="#666666">FORTIUM PARTNERS</text>
  
  <!-- Navigation -->
  <text x="500" y="40" font-family="Arial" font-size="14" fill="#333333">Solutions</text>
  <text x="580" y="40" font-family="Arial" font-size="14" fill="#333333">Partners</text>
  <text x="650" y="40" font-family="Arial" font-size="14" fill="#333333">About</text>
  <text x="710" y="40" font-family="Arial" font-size="14" fill="#333333">Login</text>
  
  <!-- Progress Bar -->
  <rect x="100" y="90" width="600" height="30" fill="#e9ecef" rx="15" ry="15" />
  <rect x="100" y="90" width="450" height="30" fill="#28a745" rx="15" ry="15" />
  <text x="235" y="110" font-family="Arial" font-size="12" fill="#ffffff">Step 3 of 3: Schedule Meeting</text>
  
  <!-- Selected Partner Info -->
  <rect x="100" y="140" width="600" height="100" fill="#ffffff" stroke="#e0e0e0" stroke-width="1" rx="5" ry="5" />
  
  <circle cx="150" cy="190" r="35" fill="#0055a4" />
  <text x="150" y="200" font-family="Arial" font-size="24" font-weight="bold" fill="#ffffff" text-anchor="middle">JD</text>
  
  <text x="200" y="165" font-family="Arial" font-size="18" font-weight="bold" fill="#333333">John Doe, CISSP</text>
  <text x="200" y="190" font-family="Arial" font-size="14" fill="#555555">Former CISO at Global Financial Corp</text>
  <text x="200" y="215" font-family="Arial" font-size="14" fill="#555555">92% match for your cloud security compliance challenge</text>
  
  <rect x="480" y="165" width="200" height="40" fill="#f8f9fa" stroke="#ced4da" stroke-width="1" rx="3" ry="3" />
  <text x="530" y="190" font-family="Arial" font-size="14" fill="#6c757d">View Profile</text>
  
  <!-- Calendar Section -->
  <rect x="100" y="260" width="600" height="350" fill="#ffffff" stroke="#e0e0e0" stroke-width="1" rx="5" ry="5" />
  
  <!-- Calendar Header -->
  <text x="120" y="290" font-family="Arial" font-size="16" font-weight="bold" fill="#333333">Select Date & Time</text>
  
  <!-- Month Navigation -->
  <text x="360" y="290" font-family="Arial" font-size="16" font-weight="bold" fill="#333333">March 2025</text>
  <rect x="290" y="275" width="30" height="30" fill="#f8f9fa" stroke="#ced4da" stroke-width="1" rx="15" ry="15" />
  <text x="298" y="295" font-family="Arial" font-size="16" fill="#6c757d">←</text>
  <rect x="480" y="275" width="30" height="30" fill="#f8f9fa" stroke="#ced4da" stroke-width="1" rx="15" ry="15" />
  <text x="488" y="295" font-family="Arial" font-size="16" fill="#6c757d">→</text>
  
  <!-- Days of Week -->
  <text x="150" y="325" font-family="Arial" font-size="12" fill="#6c757d" text-anchor="middle">MON</text>
  <text x="220" y="325" font-family="Arial" font-size="12" fill="#6c757d" text-anchor="middle">TUE</text>
  <text x="290" y="325" font-family="Arial" font-size="12" fill="#6c757d" text-anchor="middle">WED</text>
  <text x="360" y="325" font-family="Arial" font-size="12" fill="#6c757d" text-anchor="middle">THU</text>
  <text x="430" y="325" font-family="Arial" font-size="12" fill="#6c757d" text-anchor="middle">FRI</text>
  <text x="500" y="325" font-family="Arial" font-size="12" fill="#6c757d" text-anchor="middle">SAT</text>
  <text x="570" y="325" font-family="Arial" font-size="12" fill="#6c757d" text-anchor="middle">SUN</text>
  
  <!-- Calendar Grid - Week 1 -->
  <circle cx="150" cy="360" r="20" fill="#f8f9fa" stroke="#ced4da" stroke-width="1" />
  <text x="150" y="365" font-family="Arial" font-size="12" fill="#6c757d" text-anchor="middle">10</text>
  
  <circle cx="220" cy="360" r="20" fill="#f8f9fa" stroke="#ced4da" stroke-width="1" />
  <text x="220" y="365" font-family="Arial" font-size="12" fill="#6c757d" text-anchor="middle">11</text>
  
  <circle cx="290" cy="360" r="20" fill="#f8f9fa" stroke="#ced4da" stroke-width="1" />
  <text x="290" y="365" font-family="Arial" font-size="12" fill="#6c757d" text-anchor="middle">12</text>
  
  <circle cx="360" cy="360" r="20" fill="#28a745" />
  <text x="360" y="365" font-family="Arial" font-size="12" fill="#ffffff" text-anchor="middle">13</text>
  
  <circle cx="430" cy="360" r="20" fill="#f8f9fa" stroke="#ced4da" stroke-width="1" />
  <text x="430" y="365" font-family="Arial" font-size="12" fill="#6c757d" text-anchor="middle">14</text>
  
  <circle cx="500" cy="360" r="20" fill="#f8f9fa" stroke="#ced4da" stroke-width="1" />
  <text x="500" y="365" font-family="Arial" font-size="12" fill="#6c757d" text-anchor="middle">15</text>
  
  <circle cx="570" cy="360" r="20" fill="#f8f9fa" stroke="#ced4da" stroke-width="1" />
  <text x="570" y="365" font-family="Arial" font-size="12" fill="#6c757d" text-anchor="middle">16</text>
  
  <!-- Available Time Slots -->
  <text x="120" y="410" font-family="Arial" font-size="14" font-weight="bold" fill="#333333">Available Times for Thursday, March 13</text>
  
  <rect x="120" y="430" width="120" height="40" fill="#f8f9fa" stroke="#ced4da" stroke-width="1" rx="3" ry="3" />
  <text x="150" y="455" font-family="Arial" font-size="14" fill="#333333" text-anchor="middle">9:00 AM</text>
  
  <rect x="250" y="430" width="120" height="40" fill="#f8f9fa" stroke="#ced4da" stroke-width="1" rx="3" ry="3" />
  <text x="280" y="455" font-family="Arial" font-size="14" fill="#333333" text-anchor="middle">10:30 AM</text>
  
  <rect x="380" y="430" width="120" height="40" fill="#0055a4" rx="3" ry="3" />
  <text x="410" y="455" font-family="Arial" font-size="14" fill="#ffffff" text-anchor="middle">1:00 PM</text>
  
  <rect x="510" y="430" width="120" height="40" fill="#f8f9fa" stroke="#ced4da" stroke-width="1" rx="3" ry="3" />
  <text x="540" y="455" font-family="Arial" font-size="14" fill="#333333" text-anchor="middle">3:30 PM</text>
  
  <rect x="120" y="480" width="120" height="40" fill="#f8f9fa" stroke="#ced4da" stroke-width="1" rx="3" ry="3" />
  <text x="150" y="505" font-family="Arial" font-size="14" fill="#333333" text-anchor="middle">4:00 PM</text>
  
  <!-- Meeting Duration -->
  <text x="120" y="545" font-family="Arial" font-size="14" font-weight="bold" fill="#333333">Meeting Duration</text>
  
  <rect x="120" y="565" width="80" height="30" fill="#0055a4" rx="3" ry="3" />
  <text x="150" y="585" font-family="Arial" font-size="12" fill="#ffffff" text-anchor="middle">30 min</text>
  
  <rect x="210" y="565" width="80" height="30" fill="#f8f9fa" stroke="#ced4da" stroke-width="1" rx="3" ry="3" />
  <text x="240" y="585" font-family="Arial" font-size="12" fill="#333333" text-anchor="middle">45 min</text>
  
  <rect x="300" y="565" width="80" height="30" fill="#f8f9fa" stroke="#ced4da" stroke-width="1" rx="3" ry="3" />
  <text x="330" y="585" font-family="Arial" font-size="12" fill="#333333" text-anchor="middle">60 min</text>
  
  <!-- Book Button -->
  <rect x="460" y="565" width="200" height="50" fill="#28a745" rx="3" ry="3" />
  <text x="530" y="595" font-family="Arial" font-size="16" font-weight="bold" fill="#ffffff" text-anchor="middle">Book Meeting</text>
</svg>
