<svg xmlns="http://www.w3.org/2000/svg" viewBox="0 0 800 600">
  <!-- Background -->
  <rect width="800" height="600" fill="#f5f7fa" />
  
  <!-- Header -->
  <rect y="0" width="800" height="70" fill="#ffffff" stroke="#e0e0e0" stroke-width="1" />
  <rect x="20" y="20" width="180" height="30" fill="#0055a4" rx="3" ry="3" />
  <text x="210" y="40" font-family="Arial" font-size="14" fill="#666666">FORTIUM PARTNERS</text>
  
  <!-- Navigation -->
  <text x="500" y="40" font-family="Arial" font-size="14" fill="#333333">Solutions</text>
  <text x="580" y="40" font-family="Arial" font-size="14" fill="#333333">Partners</text>
  <text x="650" y="40" font-family="Arial" font-size="14" fill="#333333">About</text>
  <text x="710" y="40" font-family="Arial" font-size="14" fill="#333333">Login</text>
  
  <!-- Hero Section -->
  <rect x="0" y="70" width="800" height="150" fill="#0055a4" />
  <text x="100" y="140" font-family="Arial" font-size="28" font-weight="bold" fill="#ffffff">Find Your Fractional CIO, CTO, or CISO</text>
  <text x="100" y="180" font-family="Arial" font-size="16" fill="#ffffff">Describe your challenge, and we'll match you with the right expert</text>
  
  <!-- Main Form Area -->
  <rect x="100" y="250" width="600" height="280" fill="#ffffff" rx="5" ry="5" stroke="#e0e0e0" stroke-width="1" />
  
  <!-- Form Header -->
  <text x="130" y="290" font-family="Arial" font-size="20" font-weight="bold" fill="#333333">What challenge can we help you with?</text>
  
  <!-- Problem Statement Box -->
  <rect x="130" y="310" width="540" height="120" fill="#f8f9fa" stroke="#ced4da" stroke-width="1" rx="3" ry="3" />
  <text x="145" y="340" font-family="Arial" font-size="14" fill="#6c757d" opacity="0.7">Describe your business challenge, technical needs, or leadership requirements...</text>
  
  <!-- Optional Fields -->
  <rect x="130" y="450" width="260" height="40" fill="#f8f9fa" stroke="#ced4da" stroke-width="1" rx="3" ry="3" />
  <text x="145" y="475" font-family="Arial" font-size="14" fill="#6c757d" opacity="0.7">Industry (Optional)</text>
  
  <rect x="410" y="450" width="260" height="40" fill="#f8f9fa" stroke="#ced4da" stroke-width="1" rx="3" ry="3" />
  <text x="425" y="475" font-family="Arial" font-size="14" fill="#6c757d" opacity="0.7">Urgency (Optional)</text>
  
  <!-- Submit Button -->
  <rect x="570" y="510" width="100" height="40" fill="#28a745" rx="3" ry="3" />
  <text x="594" y="535" font-family="Arial" font-size="14" font-weight="bold" fill="#ffffff">Find Expert</text>
  
  <!-- Footer -->
  <rect y="560" width="800" height="40" fill="#f8f9fa" />
  <text x="320" y="585" font-family="Arial" font-size="12" fill="#6c757d">© 2025 Fortium Partners, LP</text>
</svg>
