<svg xmlns="http://www.w3.org/2000/svg" viewBox="0 0 800 700">
  <!-- Background -->
  <rect width="800" height="700" fill="#f5f7fa" />
  
  <!-- Header -->
  <rect y="0" width="800" height="70" fill="#ffffff" stroke="#e0e0e0" stroke-width="1" />
  <rect x="20" y="20" width="180" height="30" fill="#0055a4" rx="3" ry="3" />
  <text x="210" y="40" font-family="Arial" font-size="14" fill="#666666">FORTIUM PARTNERS</text>
  
  <!-- Navigation -->
  <text x="500" y="40" font-family="Arial" font-size="14" fill="#333333">Solutions</text>
  <text x="580" y="40" font-family="Arial" font-size="14" fill="#333333">Partners</text>
  <text x="650" y="40" font-family="Arial" font-size="14" fill="#333333">About</text>
  <text x="710" y="40" font-family="Arial" font-size="14" fill="#333333">Login</text>
  
  <!-- Progress Bar -->
  <rect x="100" y="90" width="600" height="30" fill="#e9ecef" rx="15" ry="15" />
  <rect x="100" y="90" width="300" height="30" fill="#28a745" rx="15" ry="15" />
  <text x="235" y="110" font-family="Arial" font-size="12" fill="#ffffff">Step 2 of 3: Select Partner</text>
  
  <!-- Problem Summary Section -->
  <rect x="100" y="140" width="600" height="80" fill="#ffffff" stroke="#e0e0e0" stroke-width="1" rx="5" ry="5" />
  <text x="120" y="165" font-family="Arial" font-size="16" font-weight="bold" fill="#333333">Your Challenge Summary</text>
  <text x="120" y="190" font-family="Arial" font-size="14" fill="#555555">Cloud migration strategy with emphasis on security compliance for financial services...</text>
  <rect x="560" y="150" width="120" height="30" fill="#f8f9fa" stroke="#ced4da" stroke-width="1" rx="3" ry="3" />
  <text x="580" y="170" font-family="Arial" font-size="12" fill="#6c757d">Edit Details</text>
  
  <!-- Results Header -->
  <text x="100" y="250" font-family="Arial" font-size="20" font-weight="bold" fill="#333333">Recommended Fortium Partners (3)</text>
  <text x="100" y="275" font-family="Arial" font-size="14" fill="#6c757d">These experts match your requirements based on expertise and availability</text>
  
  <!-- Partner Card 1 - Best Match -->
  <rect x="100" y="300" width="600" height="160" fill="#ffffff" stroke="#28a745" stroke-width="2" rx="5" ry="5" />
  <rect x="100" y="300" width="150" height="30" fill="#28a745" rx="5" ry="5" />
  <text x="125" y="320" font-family="Arial" font-size="12" font-weight="bold" fill="#ffffff">BEST MATCH · 92%</text>
  
  <circle cx="150" cy="365" r="35" fill="#0055a4" />
  <text x="150" y="375" font-family="Arial" font-size="24" font-weight="bold" fill="#ffffff" text-anchor="middle">JD</text>
  
  <text x="200" y="335" font-family="Arial" font-size="18" font-weight="bold" fill="#333333">John Doe, CISSP</text>
  <text x="200" y="355" font-family="Arial" font-size="14" fill="#555555">Former CISO at Global Financial Corp</text>
  <text x="200" y="375" font-family="Arial" font-size="14" fill="#555555">• 15+ years in financial services security</text>
  <text x="200" y="395" font-family="Arial" font-size="14" fill="#555555">• Cloud migration specialist</text>
  <text x="200" y="415" font-family="Arial" font-size="14" fill="#555555">• Compliance framework expert (SOC2, PCI, GDPR)</text>
  
  <rect x="480" y="335" width="200" height="40" fill="#0055a4" rx="3" ry="3" />
  <text x="520" y="360" font-family="Arial" font-size="14" font-weight="bold" fill="#ffffff">Schedule Meeting</text>
  
  <text x="515" y="410" font-family="Arial" font-size="12" fill="#28a745">Available Tomorrow</text>
  <rect x="480" y="390" width="200" height="20" stroke="#ced4da" stroke-width="1" fill="none" rx="3" ry="3" />
  <rect x="480" y="390" width="100" height="20" fill="#28a745" rx="3" ry="3" opacity="0.3" />
  <rect x="580" y="390" width="50" height="20" fill="#ffc107" rx="0" ry="0" opacity="0.3" />
  
  <!-- Partner Card 2 -->
  <rect x="100" y="480" width="600" height="160" fill="#ffffff" stroke="#e0e0e0" stroke-width="1" rx="5" ry="5" />
  <rect x="100" y="480" width="150" height="30" fill="#0055a4" rx="5" ry="5" />
  <text x="135" y="500" font-family="Arial" font-size="12" font-weight="bold" fill="#ffffff">MATCH · 85%</text>
  
  <circle cx="150" cy="545" r="35" fill="#0055a4" />
  <text x="150" y="555" font-family="Arial" font-size="24" font-weight="bold" fill="#ffffff" text-anchor="middle">JS</text>
  
  <text x="200" y="515" font-family="Arial" font-size="18" font-weight="bold" fill="#333333">Jane Smith, MBA</text>
  <text x="200" y="535" font-family="Arial" font-size="14" fill="#555555">Former CTO at TechFin Solutions</text>
  <text x="200" y="555" font-family="Arial" font-size="14" fill="#555555">• Cloud architecture specialist</text>
  <text x="200" y="575" font-family="Arial" font-size="14" fill="#555555">• Digital transformation leader</text>
  <text x="200" y="595" font-family="Arial" font-size="14" fill="#555555">• Financial technology background</text>
  
  <rect x="480" y="515" width="200" height="40" fill="#0055a4" rx="3" ry="3" />
  <text x="520" y="540" font-family="Arial" font-size="14" font-weight="bold" fill="#ffffff">Schedule Meeting</text>
  
  <text x="510" y="590" font-family="Arial" font-size="12" fill="#0055a4">Available This Week</text>
  <rect x="480" y="570" width="200" height="20" stroke="#ced4da" stroke-width="1" fill="none" rx="3" ry="3" />
  <rect x="480" y="570" width="80" height="20" fill="#0055a4" rx="3" ry="3" opacity="0.3" />
  
  <!-- See More Button -->
  <rect x="350" y="660" width="100" height="40" fill="#f8f9fa" stroke="#ced4da" stroke-width="1" rx="3" ry="3" />
  <text x="370" y="685" font-family="Arial" font-size="14" fill="#6c757d">See More</text>
</svg>
